HIERARCHY
ROOT root
{
	OFFSET 0.000000 0.000000 0.000000
	CHANNELS 6 Xposition Yposition Zposition Zrotation Yrotation Xrotation
	JOINT lhip
	{
		OFFSET 0.058581 -0.082280 -0.017664
		CHANNELS 3 Zrotation Yrotation Xrotation
		JOINT lknee
		{
			OFFSET 0.043451 -0.386469 0.008037
			CHANNELS 3 Zrotation Yrotation Xrotation
			JOINT lankle
			{
				OFFSET -0.014790 -0.426874 -0.037428
				CHANNELS 3 Zrotation Yrotation Xrotation
				JOINT ltoe
				{
					OFFSET 0.041054 -0.060286 0.122042
					CHANNELS 3 Zrotation Yrotation Xrotation
					End Site
					{
						OFFSET 0.000000 0.000000 0.000000
					}
				}
			}
		}
	}
	JOINT rhip
	{
		OFFSET -0.060310 -0.090513 -0.013543
		CHANNELS 3 Zrotation Yrotation Xrotation
		JOINT rknee
		{
			OFFSET -0.043257 -0.383688 -0.004843
			CHANNELS 3 Zrotation Yrotation Xrotation
			JOINT rankle
			{
				OFFSET 0.019056 -0.420046 -0.034562
				CHANNELS 3 Zrotation Yrotation Xrotation
				JOINT rtoe
				{
					OFFSET -0.034840 -0.062106 0.130323
					CHANNELS 3 Zrotation Yrotation Xrotation
					End Site
					{
						OFFSET 0.000000 0.000000 0.000000
					}
				}
			}
		}
	}
	JOINT lowerback
	{
		OFFSET 0.004439 0.124404 -0.038385
		CHANNELS 3 Zrotation Yrotation Xrotation
		JOINT upperback
		{
			OFFSET 0.004488 0.137956 0.026820
			CHANNELS 3 Zrotation Yrotation Xrotation
			JOINT chest
			{
				OFFSET -0.002265 0.056032 0.002855
				CHANNELS 3 Zrotation Yrotation Xrotation
				JOINT lowerneck
				{
					OFFSET -0.013390 0.211636 -0.033468
					CHANNELS 3 Zrotation Yrotation Xrotation
					JOINT upperneck
					{
						OFFSET 0.010113 0.088937 0.050410
						CHANNELS 3 Zrotation Yrotation Xrotation
						End Site
						{
							OFFSET 0.000000 0.000000 0.000000
						}
					}
				}
				JOINT lclavicle
				{
					OFFSET 0.071702 0.114000 -0.018898
					CHANNELS 3 Zrotation Yrotation Xrotation
					JOINT lshoulder
					{
						OFFSET 0.122921 0.045205 -0.019046
						CHANNELS 3 Zrotation Yrotation Xrotation
						JOINT lelbow
						{
							OFFSET 0.255332 -0.015649 -0.022946
							CHANNELS 3 Zrotation Yrotation Xrotation
							JOINT lwrist
							{
								OFFSET 0.265709 0.012698 -0.007375
								CHANNELS 3 Zrotation Yrotation Xrotation
								End Site
								{
									OFFSET 0.000000 0.000000 0.000000
								}
							}
						}
					}
				}
				JOINT rclavicle
				{
					OFFSET -0.082954 0.112472 -0.023707
					CHANNELS 3 Zrotation Yrotation Xrotation
					JOINT rshoulder
					{
						OFFSET -0.113228 0.046853 -0.008472
						CHANNELS 3 Zrotation Yrotation Xrotation
						JOINT relbow
						{
							OFFSET -0.260127 -0.014369 -0.031269
							CHANNELS 3 Zrotation Yrotation Xrotation
							JOINT rwrist
							{
								OFFSET -0.269108 0.006794 -0.006027
								CHANNELS 3 Zrotation Yrotation Xrotation
								End Site
								{
									OFFSET 0.000000 0.000000 0.000000
								}
							}
						}
					}
				}
			}
		}
	}
}
MOTION
Frames: 10
Frame Time: 0.033333
0.585072 0.382557 0.864870 -88.490380 0.902714 85.777283 17.674428 19.339309 -24.512359 -9.517977 17.071061 65.514006 2.667553 19.990076 -39.580298 0.000000 -0.000000 0.000000 -14.420177 -20.619366 -27.067550 6.758319 -18.911017 71.935079 4.400064 -12.622324 -37.076385 0.000000 -0.000000 0.000000 0.420193 1.125677 17.984661 1.756896 -1.073299 -13.410291 1.160947 0.786020 0.889863 3.074573 5.140432 -4.478561 2.564435 3.112474 -7.466679 7.779733 1.641659 -6.766832 -3.779105 1.239546 -9.438916 -8.815482 -25.527789 19.003470 -12.695283 -11.794703 7.913568 -5.310175 -0.831139 -6.878674 5.193118 6.763613 -11.571138 5.763759 23.533961 22.160186 24.781403 2.702752 17.029973 
0.584769 0.382096 0.866474 -88.071530 0.811182 85.766631 17.352811 19.023188 -24.479649 -9.465717 16.909761 65.142232 2.653020 19.830886 -39.411121 0.000000 -0.000000 0.000000 -14.470005 -20.529435 -26.785274 6.491435 -18.861031 71.566736 4.348650 -12.836178 -37.052174 0.000000 -0.000000 0.000000 0.490447 1.139063 17.739545 1.754484 -1.210282 -13.181966 1.152986 0.715702 0.770146 2.976177 4.826543 -4.335694 2.611602 2.986305 -7.439023 7.758406 1.634577 -6.781099 -3.889525 0.970036 -9.514243 -8.794237 -25.689237 18.915279 -12.679330 -11.873104 7.716069 -5.377212 -0.860561 -6.883707 5.313969 6.713719 -11.374773 5.670263 23.489608 22.296078 24.655675 2.653149 17.183989 
0.584499 0.381572 0.867807 -87.740726 0.737524 85.740557 17.106648 18.819229 -24.394709 -9.492981 16.772641 64.799562 2.680571 19.746791 -39.291691 0.000000 -0.000000 0.000000 -14.457325 -20.480155 -26.553176 6.353632 -18.734049 71.207930 4.381830 -13.175265 -37.082024 0.000000 -0.000000 0.000000 0.581153 1.156634 17.593833 1.737404 -1.261223 -13.143682 1.129997 0.667335 0.771022 2.920712 4.555895 -4.195044 2.665413 2.887439 -7.485421 7.725859 1.558930 -6.729716 -3.934476 0.783176 -9.544243 -8.777980 -25.885387 18.778808 -12.608124 -11.967408 7.503591 -5.392593 -0.859850 -6.911943 5.347820 6.601816 -11.262724 5.618657 23.438969 22.293401 24.629956 2.599353 17.353764 
0.584243 0.380771 0.869039 -87.542171 0.643371 85.700307 16.891773 18.774399 -24.199265 -9.567820 16.676542 64.420839 2.732436 19.647428 -39.215320 0.000000 -0.000000 0.000000 -14.424563 -20.318758 -26.402254 6.209531 -18.510112 70.907908 4.446150 -13.454268 -37.077251 0.000000 -0.000000 0.000000 0.644912 1.129253 17.462728 1.726503 -1.216756 -13.108794 1.113434 0.694085 0.769369 2.894141 4.323708 -4.051719 2.702288 2.802131 -7.549289 7.694374 1.461712 -6.732353 -3.921816 0.648654 -9.535831 -8.831225 -25.996016 18.754081 -12.709060 -11.940341 7.482992 -5.387040 -0.769749 -6.930680 5.349052 6.523722 -11.194422 5.513963 23.345915 22.191261 24.672861 2.455448 17.589135 
0.584175 0.380280 0.869633 -87.476531 0.608148 85.680176 16.790133 18.783940 -24.099663 -9.601330 16.614279 64.243324 2.762275 19.595473 -39.180923 0.000000 -0.000000 0.000000 -14.369593 -20.179794 -26.368249 6.138568 -18.369113 70.768452 4.477415 -13.628046 -37.077520 0.000000 -0.000000 0.000000 0.677474 1.089336 17.438034 1.729813 -1.182185 -13.146916 1.111403 0.726476 0.790712 2.914291 4.255820 -4.079541 2.728863 2.727527 -7.480051 7.677842 1.416463 -6.733214 -3.921581 0.609331 -9.546159 -8.832027 -25.968146 18.742610 -12.692395 -11.919264 7.552372 -5.347770 -0.688584 -6.937361 5.364137 6.532258 -11.175681 5.416861 23.295689 22.070888 24.606729 2.426487 17.651723 
0.584154 0.379722 0.870325 -87.394382 0.585707 85.673441 16.677309 18.768005 -24.020396 -9.640989 16.541552 64.040760 2.793812 19.555991 -39.143948 0.000000 -0.000000 0.000000 -14.286660 -20.006975 -26.345916 6.047564 -18.234484 70.603032 4.492097 -13.847283 -37.069546 0.000000 -0.000000 0.000000 0.697256 1.044227 17.451506 1.755700 -1.153483 -13.211269 1.127449 0.740952 0.772321 2.971305 4.201442 -4.174119 2.777771 2.629976 -7.382056 7.635284 1.349169 -6.695268 -3.880311 0.636065 -9.554792 -8.818861 -25.935492 18.729395 -12.736590 -11.892762 7.640284 -5.275312 -0.557022 -6.905402 5.417325 6.550449 -11.142353 5.307669 23.284185 21.900456 24.529454 2.443574 17.582255 
0.584122 0.379325 0.870847 -87.319098 0.592088 85.693015 16.613233 18.728485 -23.994151 -9.675174 16.504145 63.876428 2.817270 19.559059 -39.115442 0.000000 -0.000000 0.000000 -14.227698 -19.896631 -26.322931 6.002684 -18.166233 70.454622 4.501327 -13.966457 -37.043897 0.000000 -0.000000 0.000000 0.698188 1.031027 17.459952 1.798182 -1.156591 -13.228646 1.153856 0.751167 0.705912 3.012705 4.168352 -4.281833 2.837290 2.513922 -7.369854 7.597755 1.265528 -6.647842 -3.806401 0.711600 -9.540525 -8.852672 -25.939810 18.655665 -12.936389 -11.840552 7.600833 -5.179278 -0.440286 -6.849954 5.486134 6.519583 -11.069504 5.287678 23.399211 21.844782 24.558511 2.461802 17.508170 
0.584043 0.379021 0.871168 -87.271634 0.621024 85.724840 16.584728 18.709284 -23.994654 -9.674831 16.489239 63.765395 2.832107 19.581293 -39.112320 0.000000 -0.000000 0.000000 -14.187519 -19.864065 -26.283536 6.002807 -18.139196 70.304473 4.503417 -14.010636 -37.052067 0.000000 -0.000000 0.000000 0.705650 1.066694 17.457477 1.841558 -1.152480 -13.233231 1.180965 0.738414 0.667685 3.021920 4.155085 -4.396083 2.847577 2.412398 -7.441303 7.538602 1.205198 -6.626025 -3.710802 0.752077 -9.509018 -8.964931 -25.947864 18.654209 -13.112918 -11.842228 7.600060 -5.071068 -0.398129 -6.835686 5.559595 6.478477 -10.956017 5.359115 23.604049 21.895518 24.602189 2.519922 17.443195 
0.583912 0.378774 0.871384 -87.272228 0.645057 85.761776 16.548198 18.692275 -24.004566 -9.655358 16.463610 63.699525 2.840457 19.631761 -39.134801 0.000000 -0.000000 0.000000 -14.154030 -19.852469 -26.266242 5.983390 -18.138573 70.202052 4.496709 -14.044296 -37.081368 0.000000 -0.000000 0.000000 0.691623 1.112830 17.461976 1.871825 -1.133478 -13.283708 1.197706 0.730899 0.664482 2.990353 4.170887 -4.539388 2.816533 2.289717 -7.448838 7.537124 1.165663 -6.608262 -3.638566 0.782060 -9.449030 -9.200012 -25.947042 18.849187 -13.435152 -11.839474 7.668245 -4.992029 -0.379514 -6.836206 5.702276 6.463449 -10.820522 5.433734 23.787230 22.015742 24.773708 2.540172 17.451300 
0.583598 0.378482 0.871560 -87.331960 0.672935 85.831431 16.452234 18.597398 -24.062591 -9.567356 16.426623 63.661748 2.845599 19.824328 -39.171350 0.000000 -0.000000 0.000000 -14.090638 -19.788541 -26.322756 5.989651 -18.090719 70.127964 4.547888 -14.091121 -37.112071 0.000000 -0.000000 0.000000 0.656262 1.142584 17.453834 1.880934 -1.120677 -13.395620 1.199467 0.765639 0.655201 2.907168 4.219009 -4.660641 2.766859 2.112940 -7.317892 7.568636 1.197272 -6.604426 -3.581372 0.822345 -9.326085 -9.536197 -26.023100 19.134850 -13.709287 -11.803974 7.741406 -4.872880 -0.375440 -6.829045 5.845692 6.479435 -10.613566 5.630764 23.992378 22.261003 24.965458 2.540896 17.432324 
